<?xml version="1.0" encoding="UTF-8"?>
<svg width="108px" height="108px" viewBox="0 0 108 108" version="1.1" xmlns="http://www.w3.org/2000/svg" xmlns:xlink="http://www.w3.org/1999/xlink">
    <title>57faca5de412869feb3aa59f13c5034</title>
    <g id="页面-2" stroke="none" stroke-width="1" fill="none" fill-rule="evenodd">
        <g id="57faca5de412869feb3aa59f13c5034" transform="translate(0.624869, 0.097395)">
            <path d="M67,19.9714584 C73.333,20.6381584 79.667,21.3047584 86,21.9714584 C75.354,32.2834584 64.687,42.6167584 54,52.9714584 C43.3127,42.6167584 32.646,32.2834584 22,21.9714584 C28.1446,20.9812584 34.4779,20.6479584 41,20.9714584 C41,16.3047584 41,11.6381584 41,6.97145842 C41.2438,4.20885842 42.5771,2.04215842 45,0.471458421 C51.4172,-0.398141579 57.751,-0.0647415792 64,1.47145842 C64.833,2.30475842 65.667,3.13815842 66.5,3.97145842 C66.999,9.29435842 67.166,14.6277584 67,19.9714584 Z" id="路径" fill="#1DFA2B"></path>
            <path d="M41,6.97145842 C41,11.6381584 41,16.3047584 41,20.9714584 C34.4779,20.6479584 28.1446,20.9812584 22,21.9714584 C21.2109,21.6886584 20.5442,21.1886584 20,20.4714584 C26.6583,19.9718584 33.325,19.8051584 40,19.9714584 C39.6818,15.4391584 40.0151,11.1058584 41,6.97145842 Z" id="路径" fill="#B4FDB7"></path>
            <path d="M67,19.9714584 C74.008,19.8051584 81.008,19.9718584 88,20.4714584 C87.456,21.1886584 86.789,21.6886584 86,21.9714584 C79.667,21.3047584 73.333,20.6381584 67,19.9714584 Z" id="路径" fill="#C1FDC4"></path>
            <path d="M97,53.9714584 C105.043,53.5110584 108.21,57.1774584 106.5,64.9714584 C97.333,75.4714584 88.167,85.9714584 79,96.4714584 C76.333,97.8044584 73.667,99.1384584 71,100.471458 C57,100.804458 43,101.138458 29,101.471458 C27.1667,103.304458 25.3333,105.138458 23.5,106.971458 C15.3635,99.8364584 7.5302,92.3364584 1.42108547e-14,84.4714584 C6.3641,77.7724584 13.0308,71.4394584 20,65.4714584 C22.8821,63.8634584 25.8821,62.5304584 29,61.4714584 C43.516,63.3824584 58.183,64.3824584 73,64.4714584 C76.615,68.1304584 76.948,72.1304584 74,76.4714584 C67.45,77.8914584 60.784,78.3914584 54,77.9714584 C53.7606,79.9384584 54.0939,81.7724584 55,83.4714584 C60.667,84.1384584 66.333,84.1384584 72,83.4714584 C78.146,80.9964584 81.646,76.4964584 82.5,69.9714584 C87.171,64.4684584 92.004,59.1354584 97,53.9714584 Z" id="路径" fill="#1DFA2B"></path>
        </g>
    </g>
</svg>