<?xml version="1.0" encoding="utf-8"?>
<!-- Generator: Adobe Illustrator 25.4.1, SVG Export Plug-In . SVG Version: 6.00 Build 0)  -->
<svg version="1.1" id="图层_1" xmlns="http://www.w3.org/2000/svg" xmlns:xlink="http://www.w3.org/1999/xlink" x="0px" y="0px"
	 viewBox="0 0 335.3 358.8" style="enable-background:new 0 0 335.3 358.8;" xml:space="preserve">
<style type="text/css">
	.st0{fill:none;}
	.st1{fill:#5A595A;}
</style>
<g>
	<rect id="canvas_background" x="-1" y="-1" class="st0" width="582" height="402"/>
</g>
<g>
	<path id="svg_22" class="st1" d="M294.4,58.5L208.5,8.9C197.5,2.5,183-1,167.7-1s-29.8,3.5-40.9,9.9L40.9,58.5
		C18,71.7,0,102.8,0,129.3v99.2c0,26.5,18,57.5,40.9,70.8l85.9,49.6c11.1,6.4,25.6,9.9,40.9,9.9s29.8-3.5,40.9-9.9l85.9-49.6
		c22.9-13.2,40.9-44.3,40.9-70.8v-99.2C335.3,102.8,317.4,71.7,294.4,58.5z M313.5,228.5c0,18.8-13.7,42.5-30,51.9L197.6,330
		c-7.7,4.4-18.6,7-30,7c-11.4,0-22.3-2.5-30-7l-85.9-49.6c-10.5-7.2-13.4-11.8-13.4-11.8c-18.6-25.1,20.7-24.5,37.2-9.9
		c32,28.3,100.4,20.3,111.9,18.4c48.6,5.8,46.5-30.4,50.9-50.2c43.9-29.2,39.5-110.3,2-145.7c28.5,61.3-12.1,118.4-37.7,118.4
		c20.8-10,18.1-42.5,0.4-55.5c13.4,22-28.4,59.2-51.7,33.5c-4.9-5.3-6-15.6-9.1-26.5c0,0,0,0,0,0c-1.9-11.3-1.1-30.7,10.4-43.9
		c-26.9-8.4-17.2,14.9-35.2,26.3c9-18-0.1-37.9,14-54.2c-7.9-6.5-35.8,12.7-52.7,32.5c-24.7-6.4-47.4-15.4-34.4-29.2
		c2.4-2.1,4.8-3.9,7.4-5.4l85.9-49.6c7.7-4.4,18.6-7,30-7c11.4,0,22.3,2.5,30,7l85.9,49.6c16.2,9.4,30,33.1,30,51.9V228.5z
		 M130.6,192.4c9.6,10.9,35.2,18.6,45.3,18.6C171.5,235.2,140.2,210.4,130.6,192.4z"/>
</g>
</svg>
