<?xml version="1.0" encoding="UTF-8"?>
<svg width="512px" height="512px" viewBox="0 0 512 512" version="1.1" xmlns="http://www.w3.org/2000/svg" xmlns:xlink="http://www.w3.org/1999/xlink">
    <title>画板</title>
    <g id="画板" stroke="none" stroke-width="1" fill="none" fill-rule="evenodd">
        <g id="RHINO(1)" transform="translate(-396.000000, 15.000000)">
            <path d="M650.755426,0 C671.037328,0 690.277297,4.66857335 704.926663,13.1461392 L704.926663,13.1461392 L818.830089,79.054863 C849.203894,96.6317627 873,137.938141 873,173.090612 L873,173.090612 L873,304.910717 C873,340.064516 849.203894,381.369566 818.830089,398.946466 L818.830089,398.946466 L704.926663,464.853861 C690.277297,473.330098 671.037328,478 650.755426,478 C630.473525,478 611.234881,473.330098 596.58419,464.852532 L596.58419,464.852532 L486.091081,400.921894 C492.438951,385.067979 499.301022,368.542821 507.131422,351.518565 C542.592824,397.907328 615.174437,412.797402 724.876261,396.188785 L724.876261,396.188785 L724.876261,351.518565 L725.756543,351.011092 C754.713099,334.141864 774.487515,305.133484 785.079792,263.985951 C795.779062,222.422786 795.779062,178.679866 785.079792,132.757192 C773.718688,183.887324 760.191877,220.009901 744.499358,241.124923 C728.806839,262.239945 709.911709,276.317092 687.813969,283.356364 C701.048579,260.647314 707.665883,234.64339 707.665883,205.344592 C697.696887,215.21908 675.325453,243.31102 655.052971,241.124923 C643.044096,239.930146 634.118987,229.280481 628.277643,209.175928 C626.516991,178.414641 648.681974,160.772656 694.77259,156.249973 C677.852134,146.299756 652.203114,147.147536 617.82553,158.793313 C616.498323,154.160602 619.102035,145.481895 625.636666,132.757192 C632.171297,120.032488 637.857319,110.97136 642.694732,105.573808 C617.000812,112.08648 598.124428,119.042175 586.06558,126.440894 C574.006733,133.839612 563.935678,143.775972 555.852415,156.249973 L555.852415,156.249973 L470.999844,87.2171539 C474.751861,84.1265055 478.659271,81.382609 482.682089,79.054863 L482.682089,79.054863 L596.58419,13.1461392 C611.234881,4.66857335 630.473525,0 650.755426,0 Z M580.727612,256.518641 C590.875709,268.009458 617.827844,276.142864 628.427459,276.142864 C604.408611,315.028495 590.876762,275.4341 580.727612,256.518641 Z" id="形状结合" fill="#CF4C4C" fill-rule="nonzero"></path>
            <g id="编组" transform="translate(0.000000, 74.000000)"></g>
        </g>
    </g>
</svg>