<svg id="图层_1" data-name="图层 1" xmlns="http://www.w3.org/2000/svg" viewBox="0 0 582 402"><defs><style>.cls-1{fill:none;}.cls-2{fill:#ff007a;}</style></defs><rect id="canvas_background" data-name="canvas background" class="cls-1" width="582" height="402"/><path id="svg_22" data-name="svg 22" class="cls-2" d="M294.45,59.5,208.52,9.89C197.47,3.51,183,0,167.65,0s-29.81,3.51-40.86,9.89L40.87,59.5C18,72.73,0,103.82,0,130.28V229.5C0,256,18,287.05,40.87,300.29l85.92,49.6c11,6.38,25.56,9.9,40.86,9.9s29.82-3.52,40.87-9.9l85.93-49.61c22.91-13.23,40.86-44.32,40.86-70.78V130.28C335.31,103.83,317.36,72.73,294.45,59.5Zm19.05,170c0,18.76-13.72,42.52-30,51.9L197.62,331c-7.68,4.44-18.6,7-30,7s-22.28-2.54-30-7L51.77,281.4c-10.51-7.16-13.43-11.81-13.43-11.81-18.57-25.07,20.71-24.49,37.25-9.86,32,28.27,100.45,20.34,111.89,18.43,48.56,5.77,46.52-30.37,50.86-50.22,43.87-29.25,39.53-110.31,2-145.74,28.53,61.26-12.07,118.39-37.65,118.39,20.84-10,18.07-42.55.39-55.47,13.45,22-28.43,59.17-51.73,33.54-4.86-5.33-6-15.64-9.07-26.45h0c-1.94-11.31-1.1-30.65,10.44-43.9-26.88-8.42-17.24,14.88-35.23,26.35,9-18-.05-37.92,14-54.19-7.86-6.54-35.8,12.68-52.71,32.48-24.74-6.41-47.42-15.39-34.4-29.19a45.45,45.45,0,0,1,7.36-5.36L137.7,28.78c7.67-4.43,18.59-7,30-7s22.29,2.54,30,7l85.92,49.61c16.24,9.38,30,33.14,30,51.9ZM130.57,193.41c9.65,10.91,35.25,18.63,45.32,18.63C171.53,236.22,140.22,211.37,130.57,193.41Z" transform="translate(1 0)"/></svg>